<svg id="idea" xmlns="http://www.w3.org/2000/svg" width="32.546" height="37.219" viewBox="0 0 32.546 37.219">
  <path id="Path_4562" data-name="Path 4562" d="M16.474,4.994a11.786,11.786,0,0,0-4.646,22.621v6.824a.689.689,0,0,0,.689.689h1.048v1.9a.689.689,0,0,0,.689.689h4.453a.689.689,0,0,0,.689-.689v-1.9H20.43a.689.689,0,0,0,.689-.689V27.615A11.786,11.786,0,0,0,16.474,4.994Zm1.558,31.347H14.958V35.128h3.074Zm1.723-2.592H13.221V32.012h3.253a.689.689,0,0,0,0-1.379H13.221V27.877h6.534ZM14.241,17.207h-.689a.7.7,0,0,1,0-1.378.689.689,0,0,1,.689.7Zm6.079,9.319H18.693v-8h.7a2.082,2.082,0,1,0-2.082-2.082V26.457H15.661V18.531h.5a.689.689,0,0,0,0-1.379h-.5v-.7a2.082,2.082,0,1,0-2.068,2.082h.689v7.94H12.628a10.421,10.421,0,1,1,7.733,0Zm-1.668-9.319v-.7a.7.7,0,1,1,.7.7ZM16.474,3.657a.689.689,0,0,0,.689-.689V1.189a.689.689,0,1,0-1.378,0V2.968A.7.7,0,0,0,16.474,3.657ZM6.218,7.489a.689.689,0,0,0,.5.193A.675.675,0,0,0,7.2,7.489a.7.7,0,0,0,0-.979L5.942,5.325a.692.692,0,0,0-.979.979Zm20.043.221a.689.689,0,0,0,.5-.193l1.254-1.254a.689.689,0,1,0-.979-.937L25.779,6.579a.689.689,0,0,0,.482,1.172Zm5.817,8.409h-1.82a.7.7,0,0,0-.689.689.689.689,0,0,0,.689.689h1.778a.69.69,0,0,0,.041-1.378Zm-29.39-.028H.869a.689.689,0,1,0,0,1.378h1.82a.7.7,0,0,0,.689-.689A.689.689,0,0,0,2.689,16.091Z" transform="translate(-0.18 -0.5)" fill="#40af6c"/>
  <path id="Path_4563" data-name="Path 4563" d="M4.939,19.1l-1.254,1.31a.7.7,0,0,0,0,.979.717.717,0,0,0,.979,0l1.254-1.254a.692.692,0,0,0-.979-.979Zm20.54.028a.689.689,0,0,0-.979,0,.7.7,0,0,0,0,.979l1.254,1.254a.717.717,0,0,0,.979,0,.7.7,0,0,0,0-.979Z" transform="translate(1.071 6.473)" fill="#40af6c"/>
</svg>
