<svg id="Target_02" data-name="Target 02" xmlns="http://www.w3.org/2000/svg" width="37.303" height="37.219" viewBox="0 0 37.303 37.219">
  <path id="Path_4557" data-name="Path 4557" d="M15.881,23.771a4.931,4.931,0,1,1-.315-9.857.987.987,0,0,1,.118,1.971,2.957,2.957,0,1,0,3.154,3.154,1,1,0,0,1,1.045-.927.986.986,0,0,1,.927,1.045A4.929,4.929,0,0,1,15.881,23.771ZM7.976,13.914a1.065,1.065,0,0,1-.591-.2.986.986,0,0,1-.2-1.38A10.862,10.862,0,0,1,15.881,8a10.724,10.724,0,0,1,5.027,1.242.988.988,0,0,1-.946,1.735,8.832,8.832,0,0,0-11.2,2.583A1,1,0,0,1,7.976,13.914Z" transform="translate(0.876 1.62)" fill="#0f5b94"/>
  <path id="Path_4558" data-name="Path 4558" d="M16.843,27.074A10.862,10.862,0,0,1,6,16.231a11.4,11.4,0,0,1,.217-2.169,1.005,1.005,0,0,1,1.971.394,8.871,8.871,0,1,0,17.565,1.774,8.733,8.733,0,0,0-1.005-4.081.988.988,0,0,1,1.735-.946,10.725,10.725,0,0,1,1.2,5.027A10.862,10.862,0,0,1,16.843,27.074Z" transform="translate(-0.086 4.232)" fill="#0f5b94"/>
  <path id="Path_4559" data-name="Path 4559" d="M19.757,38.514A16.757,16.757,0,1,1,19.757,5a16.5,16.5,0,0,1,5.481.927.986.986,0,1,1-.67,1.853,14.49,14.49,0,0,0-4.81-.808A14.786,14.786,0,1,0,34.542,21.757a14.49,14.49,0,0,0-.808-4.81.986.986,0,1,1,1.853-.67,16.5,16.5,0,0,1,.927,5.481A16.777,16.777,0,0,1,19.757,38.514Z" transform="translate(-3 -1.294)" fill="#0f5b94"/>
  <path id="Path_4560" data-name="Path 4560" d="M11.987,23.146a.927.927,0,0,1-.69-.3.946.946,0,0,1,0-1.38l16.6-16.6a.976.976,0,1,1,1.38,1.38l-16.6,16.6A.927.927,0,0,1,11.987,23.146Z" transform="translate(4.77 -1.697)" fill="#0f5b94"/>
  <path id="Path_4561" data-name="Path 4561" d="M21.8,16.21h-.217l-4.534-1.045a.927.927,0,0,1-.729-.729L15.273,9.9a.966.966,0,0,1,.256-.907l5.579-5.579a.966.966,0,0,1,.966-.256.986.986,0,0,1,.69.729l.907,3.943,3.943.907a1.009,1.009,0,0,1-.434,1.971L22.646,9.566a1.025,1.025,0,0,1-.769-.769L21.246,6,17.3,9.941l.789,3.391,3.391.789L24.026,11.6a.983.983,0,0,1,1.38,1.4l-2.918,2.918a.927.927,0,0,1-.69.3Z" transform="translate(8.896 -3.12)" fill="#0f5b94"/>
</svg>
